<svg xmlns="http://www.w3.org/2000/svg" version="1.1" xmlns:xlink="http://www.w3.org/1999/xlink" xmlns:svgjs="http://svgjs.dev/svgjs" width="1500" height="151" viewBox="0 0 1500 151"><g transform="matrix(1,0,0,1,-0.9090909090909918,-0.7532704191325763)"><svg viewBox="0 0 396 40" data-background-color="#444444" preserveAspectRatio="xMidYMid meet" height="151" width="1500" xmlns="http://www.w3.org/2000/svg" xmlns:xlink="http://www.w3.org/1999/xlink"><g id="tight-bounds" transform="matrix(1,0,0,1,0.2400000000000091,0.19954183288280092)"><svg viewBox="0 0 395.52 39.600916334234384" height="39.600916334234384" width="395.52"><g><svg viewBox="0 0 457.77291412706313 45.833906938775506" height="39.600916334234384" width="395.52"><g><rect width="4.1127851028166535" height="45.833906938775506" x="47.37367587551178" y="0" fill="#bbbcff" opacity="1" stroke-width="0" stroke="transparent" fill-opacity="1" class="rect-qz-0" data-fill-palette-color="primary" rx="1%" id="qz-0" data-palette-color="#bbbcff"></rect></g><g transform="matrix(1,0,0,1,62.25291412706312,0.11401469387755014)"><svg viewBox="0 0 395.52 45.605877551020406" height="45.605877551020406" width="395.52"><g id="textblocktransform"><svg viewBox="0 0 395.52 45.605877551020406" height="45.605877551020406" width="395.52" id="textblock"><g><svg viewBox="0 0 395.52 45.605877551020406" height="45.605877551020406" width="395.52"><g transform="matrix(1,0,0,1,0,0)"><svg width="395.52" viewBox="1.27 -32.62 287.09000000000003 33.11" height="45.605877551020406" data-palette-color="#bbbcff"><path d="M8.69-32.03L8.69-32.03Q8.94-32.03 13.48-32.32L13.48-32.32Q13.92-30.96 15.48-27.27 17.04-23.58 19.31-18.29 21.58-12.99 22.95-9.57L22.95-9.57Q22.95-9.47 23.1-9.47 23.24-9.47 23.24-9.62L23.24-9.62Q27.54-19.92 30.08-26.56L30.08-26.56 31.84-32.23Q33.3-32.08 35.84-32.08L35.84-32.08Q37.74-32.08 41.65-32.32L41.65-32.32Q41.8-32.13 41.8-31.54L41.8-31.54Q41.8-30.71 41.6-30.71L41.6-30.71 41.5-30.71Q40.19-30.71 39.11-29.93L39.11-29.93Q38.38-29.39 38.48-27.29L38.48-27.29Q38.67-22.95 39.16-7.13L39.16-7.13Q39.21-4.49 39.94-2.64L39.94-2.64Q40.14-2.2 41.31-1.83 42.48-1.46 42.97-1.46L42.97-1.46Q43.16-1.46 43.16-0.59L43.16-0.59Q43.16-0.15 43.07 0.15L43.07 0.15Q37.21-0.15 37.06-0.15L37.06-0.15Q36.08-0.15 35.01-0.1 33.94-0.05 32.64 0.02 31.35 0.1 30.57 0.15L30.57 0.15Q30.37-0.05 30.37-0.59L30.37-0.59Q30.37-1.46 30.57-1.46L30.57-1.46Q31.1-1.46 32.13-1.78 33.15-2.1 33.5-2.49L33.5-2.49Q33.98-3.13 33.98-4.2L33.98-4.2 33.98-6.93 33.5-21.78Q33.3-24.8 32.91-24.8L32.91-24.8Q32.76-24.8 32.67-24.51L32.67-24.51 23.34-1.76Q22.51 0.1 21.48 0.1L21.48 0.1Q21.29 0.1 21 0L21 0 10.06-26.27Q9.72-14.11 9.28-4.49L9.28-4.49Q9.28-3.42 9.42-2.98L9.42-2.98Q9.67-2.44 11.38-1.95 13.09-1.46 13.67-1.46L13.67-1.46Q13.87-1.46 13.87-0.59L13.87-0.59Q13.87-0.15 13.77 0.15L13.77 0.15Q7.91-0.15 7.62-0.15L7.62-0.15Q6.3-0.15 4.13 0 1.95 0.15 1.46 0.15L1.46 0.15Q1.27-0.05 1.27-0.63L1.27-0.63Q1.27-1.46 1.46-1.46L1.46-1.46Q2.25-1.46 3.91-1.95 5.57-2.44 5.81-3.22L5.81-3.22Q6.25-4.1 6.35-6.49L6.35-6.49Q6.45-10.21 6.62-15.26 6.79-20.31 6.91-23.88 7.03-27.44 7.03-28.32L7.03-28.32Q7.03-29.25 6.88-29.69L6.88-29.69Q6.74-30.08 5.25-30.42 3.76-30.76 3.13-30.76L3.13-30.76Q2.93-30.76 2.93-31.59L2.93-31.59Q2.93-32.13 3.13-32.32L3.13-32.32Q3.86-32.28 5.64-32.15 7.42-32.03 8.69-32.03ZM60.69-30.18L60.69-30.18Q56.49-30.18 54.27-26.34 52.05-22.51 52.05-17.09L52.05-17.09Q52.05-13.43 53.05-10.11 54.05-6.79 56.44-4.37 58.84-1.95 62.2-1.95L62.2-1.95Q66.35-1.95 68.63-5.83 70.9-9.72 70.9-15.09L70.9-15.09Q70.9-18.85 69.92-22.14 68.94-25.44 66.55-27.81 64.16-30.18 60.69-30.18ZM50.39-4.35Q45.8-9.18 45.8-16.02 45.8-22.85 50.39-27.71 54.98-32.57 61.42-32.57 67.87-32.57 72.48-27.71 77.1-22.85 77.1-16.02 77.1-9.18 72.48-4.35 67.87 0.49 61.42 0.49 54.98 0.49 50.39-4.35ZM85.64-32.03L85.64-32.03Q86.32-32.03 92.33-32.32L92.33-32.32Q92.48-32.13 92.48-31.42 92.48-30.71 92.28-30.71L92.28-30.71Q91.89-30.71 91.25-30.59 90.62-30.47 89.94-30.05 89.25-29.64 89.25-29L89.25-29Q89.25-28.08 92.96-18.99L92.96-18.99Q93.55-17.43 93.94-16.6L93.94-16.6Q94.53-15.09 95.41-13.11 96.28-11.13 96.92-9.86 97.55-8.59 97.55-8.69L97.55-8.69 104.68-25.54Q105.66-27.83 105.66-28.91L105.66-28.91Q105.66-29.79 104.51-30.25 103.36-30.71 102.19-30.71L102.19-30.71Q102-30.71 102.02-31.42 102.05-32.13 102.14-32.32L102.14-32.32Q102.58-32.32 104.49-32.18 106.39-32.03 107.56-32.03L107.56-32.03Q108.83-32.03 110.49-32.15 112.15-32.28 112.89-32.32L112.89-32.32Q112.98-32.08 112.98-31.59L112.98-31.59Q112.98-30.76 112.89-30.76L112.89-30.76Q112.25-30.76 111.2-30.4 110.15-30.03 109.57-29.35L109.57-29.35Q108.83-28.17 107.47-25.05L107.47-25.05 97.31-1.27Q96.58 0.49 95.41 0.49L95.41 0.49Q94.92 0.49 94.62 0L94.62 0 84.57-25Q83.44-27.93 82.71-29.35L82.71-29.35Q82.37-29.98 81.2-30.35 80.02-30.71 79.34-30.71L79.34-30.71Q79.15-30.71 79.15-31.45L79.15-31.45Q79.15-32.13 79.29-32.32L79.29-32.32Q79.63-32.32 81.98-32.18 84.32-32.03 85.64-32.03ZM118.4-6.64L118.4-25.49Q118.4-28.42 118.01-29.59L118.01-29.59Q117.81-29.98 116.64-30.35 115.47-30.71 114.89-30.71L114.89-30.71Q114.69-30.71 114.69-31.45L114.69-31.45Q114.69-32.23 114.79-32.32L114.79-32.32Q115.03-32.32 117.5-32.18 119.96-32.03 121.28-32.03L121.28-32.03Q121.67-32.03 127.53-32.32L127.53-32.32Q127.68-31.88 127.68-31.54L127.68-31.54Q127.68-30.71 127.48-30.71L127.48-30.71Q127.04-30.71 125.72-30.32 124.41-29.93 124.31-29.59L124.31-29.59Q123.92-28.08 123.92-25.29L123.92-25.29 123.92-6.93Q123.92-4.25 124.36-2.54L124.36-2.54Q124.46-2.2 125.7-1.83 126.95-1.46 127.39-1.46L127.39-1.46Q127.58-1.46 127.58-0.54L127.58-0.54Q127.58-0.15 127.48 0.15L127.48 0.15Q121.62-0.15 121.28-0.15L121.28-0.15Q120.31-0.15 119.23-0.1 118.16-0.05 116.86 0.02 115.57 0.1 114.79 0.15L114.79 0.15Q114.59-0.05 114.59-0.54L114.59-0.54Q114.59-1.46 114.79-1.46L114.79-1.46Q115.37-1.46 116.62-1.81 117.86-2.15 118.01-2.54L118.01-2.54Q118.4-4.05 118.4-6.64L118.4-6.64ZM137-32.08L137-32.08Q139.15-32.08 144.57-32.25 149.99-32.42 152.77-32.42L152.77-32.42Q152.97-30.96 153.55-28.34 154.14-25.73 154.19-25.49L154.19-25.49Q153.95-25.24 153.16-25.24L153.16-25.24Q152.63-25.24 152.48-25.59L152.48-25.59Q150.87-29.93 146.23-29.93L146.23-29.93 143.69-29.93Q140.08-29.93 139.98-29.3L139.98-29.3Q139.69-27.93 139.69-25.34L139.69-25.34 139.69-17.68Q139.69-17.38 141.84-17.38L141.84-17.38 144.37-17.38Q144.42-17.38 144.57-17.38L144.57-17.38Q147.4-17.38 147.94-17.63 148.48-17.87 148.77-19.34L148.77-19.34Q148.92-20.07 149.06-20.56L149.06-20.56Q149.11-20.9 149.84-20.9L149.84-20.9Q150.53-20.9 150.77-20.65L150.77-20.65 150.77-11.43Q150.58-11.23 149.84-11.23L149.84-11.23Q149.21-11.23 149.06-11.62L149.06-11.62Q148.72-12.94 148.45-13.57 148.18-14.21 148.11-14.26 148.04-14.31 147.7-14.55L147.7-14.55Q147.06-14.94 143.2-14.94L143.2-14.94Q139.69-14.94 139.69-14.55L139.69-14.55 139.69-6.98Q139.69-4.3 140.13-3.03L140.13-3.03Q140.37-2.39 143.45-2.39L143.45-2.39 145.25-2.39Q149.06-2.39 151.06-3.42L151.06-3.42Q151.85-3.81 152.82-5.13 153.8-6.45 154.34-8.11L154.34-8.11Q154.38-8.4 155.02-8.4L155.02-8.4Q156.09-8.4 156.39-8.11L156.39-8.11Q156.24-7.67 155.68-6.1 155.12-4.54 154.82-3.74 154.53-2.93 154.19-1.76 153.85-0.59 153.75 0.15L153.75 0.15Q151.8 0.15 145.67 0 139.54-0.15 137.05-0.05L137.05-0.05 130.56 0.15Q130.41 0 130.41-0.63L130.41-0.63Q130.41-1.46 130.56-1.46L130.56-1.46Q131.19-1.46 132.41-1.78 133.63-2.1 133.83-2.54L133.83-2.54Q134.17-3.56 134.17-6.98L134.17-6.98 134.17-25.44Q134.17-28.37 133.83-29.44L133.83-29.44Q133.68-29.98 132.46-30.32 131.24-30.66 130.51-30.66L130.51-30.66Q130.31-30.66 130.31-31.4L130.31-31.4Q130.31-32.08 130.51-32.28L130.51-32.28Q133.73-32.08 137-32.08ZM165.56-32.13L165.56-32.13Q166.98-32.13 168.84-32.2 170.69-32.28 172.16-32.28L172.16-32.28Q173.62-32.28 175.06-32.01 176.5-31.74 177.94-31.05 179.38-30.37 180.48-29.37 181.58-28.37 182.29-26.81 183-25.24 183-23.34L183-23.34Q183-21.04 181.8-18.85 180.6-16.65 178.19-15.11 175.77-13.57 172.74-13.57L172.74-13.57Q171.72-13.57 170.69-13.94 169.67-14.31 169.27-14.84L169.27-14.84Q169.18-14.94 169.1-15.33 169.03-15.72 169.08-16.06 169.13-16.41 169.23-16.41L169.23-16.41Q170.35-15.92 171.96-15.92L171.96-15.92Q174.3-15.92 175.67-17.85 177.04-19.78 177.04-22.71L177.04-22.71Q177.04-25.98 175.72-27.88 174.4-29.79 171.67-29.79L171.67-29.79Q169.62-29.79 168.84-29.44L168.84-29.44Q168.25-29.15 168.25-24.37L168.25-24.37 168.25-6.93Q168.25-4 168.64-2.78L168.64-2.78Q168.79-2.2 170.28-1.83 171.76-1.46 172.45-1.46L172.45-1.46Q172.64-1.46 172.64-0.63L172.64-0.63Q172.64-0.1 172.55 0.2L172.55 0.2Q167.18-0.1 165.61-0.1L165.61-0.1Q164.29-0.1 162.66-0.02 161.02 0.05 160.05 0.1L160.05 0.1 159.07 0.2Q158.92 0 158.92-0.68L158.92-0.68Q158.92-1.46 159.07-1.46L159.07-1.46Q159.7-1.46 160.95-1.78 162.19-2.1 162.39-2.54L162.39-2.54Q162.68-3.42 162.68-6.98L162.68-6.98 162.68-25.44Q162.68-28.22 162.39-29.44L162.39-29.44Q162.24-29.83 160.95-30.25 159.66-30.66 159.07-30.66L159.07-30.66Q158.87-30.66 158.87-31.4L158.87-31.4Q158.87-32.13 159.07-32.28L159.07-32.28Q164.2-32.13 165.56-32.13ZM189.34-6.64L189.34-25.49Q189.34-28.42 188.95-29.59L188.95-29.59Q188.75-29.98 187.58-30.35 186.41-30.71 185.82-30.71L185.82-30.71Q185.63-30.71 185.63-31.45L185.63-31.45Q185.63-32.23 185.73-32.32L185.73-32.32Q185.97-32.32 188.44-32.18 190.9-32.03 192.22-32.03L192.22-32.03Q192.61-32.03 198.47-32.32L198.47-32.32Q198.62-31.88 198.62-31.54L198.62-31.54Q198.62-30.71 198.42-30.71L198.42-30.71Q197.98-30.71 196.66-30.32 195.35-29.93 195.25-29.59L195.25-29.59Q194.86-28.08 194.86-25.29L194.86-25.29 194.86-6.93Q194.86-4.25 195.3-2.54L195.3-2.54Q195.4-2.2 196.64-1.83 197.89-1.46 198.32-1.46L198.32-1.46Q198.52-1.46 198.52-0.54L198.52-0.54Q198.52-0.15 198.42 0.15L198.42 0.15Q192.56-0.15 192.22-0.15L192.22-0.15Q191.24-0.15 190.17-0.1 189.1-0.05 187.8 0.02 186.51 0.1 185.73 0.15L185.73 0.15Q185.53-0.05 185.53-0.54L185.53-0.54Q185.53-1.46 185.73-1.46L185.73-1.46Q186.31-1.46 187.56-1.81 188.8-2.15 188.95-2.54L188.95-2.54Q189.34-4.05 189.34-6.64L189.34-6.64ZM229.96-8.89L229.96-8.89Q229.96-8.25 229.23-5.1 228.5-1.95 228.11-1.76L228.11-1.76Q223.86 0.29 216.78 0.29L216.78 0.29Q210.33 0.29 205.79-4.44 201.25-9.18 201.25-15.72L201.25-15.72Q201.25-22.66 205.89-27.61 210.53-32.57 217.32-32.57L217.32-32.57Q222.83-32.57 228.84-31.25L228.84-31.25Q228.99-31.2 229.13-28.05 229.28-24.9 229.28-24.12L229.28-24.12Q229.28-23.39 228.11-23.39L228.11-23.39Q227.81-23.39 227.42-23.58L227.42-23.58Q227.23-24.46 226.72-25.39 226.2-26.32 225.18-27.49 224.15-28.66 222.15-29.42 220.15-30.18 217.51-30.18L217.51-30.18Q212.73-30.18 210.07-26.22 207.4-22.27 207.4-16.75L207.4-16.75Q207.4-10.6 210.41-6.32 213.41-2.05 218.88-2.05L218.88-2.05Q223.22-2.05 225.76-4.79L225.76-4.79Q226.4-5.47 226.91-6.62 227.42-7.76 227.69-8.54 227.96-9.33 228.06-9.33L228.06-9.33Q229.77-9.33 229.96-8.89ZM241.83-25.29L241.83-25.29 241.83-17.43Q241.83-17.29 241.9-17.21 241.97-17.14 242.07-17.09L242.07-17.09 242.12-17.09 242.51-17.09Q243.53-17.09 245.05-18.75L245.05-18.75Q248.95-22.95 253.64-28.52L253.64-28.52Q254.42-29.44 254.42-29.98L254.42-29.98Q254.42-30.47 253.35-30.66 252.27-30.86 251.54-30.86L251.54-30.86Q251.35-30.86 251.3-31.42 251.25-31.98 251.35-32.32L251.35-32.32Q256.77-32.03 257.26-32.03L257.26-32.03Q258.18-32.03 259.09-32.08 259.99-32.13 261.04-32.2 262.09-32.28 262.77-32.32L262.77-32.32Q262.87-32.13 262.85-31.49 262.82-30.86 262.68-30.86L262.68-30.86Q259.26-30.47 257.74-28.81L257.74-28.81 248.66-18.46Q248.12-17.82 248.76-17.09L248.76-17.09 260.19-3.52Q261.06-2.44 262.55-1.95 264.04-1.46 264.73-1.46L264.73-1.46Q264.97-1.46 264.97-0.54L264.97-0.54Q264.97-0.15 264.82 0.15L264.82 0.15Q258.96-0.15 258.13-0.15L258.13-0.15Q256.57-0.15 254.4-0.02 252.23 0.1 251.35 0.15L251.35 0.15Q251.15-0.05 251.15-0.76 251.15-1.46 251.35-1.46L251.35-1.46Q251.88-1.46 252.71-1.81 253.54-2.15 253.54-2.54L253.54-2.54Q253.54-2.78 252.18-4.59 250.81-6.4 248.42-9.2 246.02-12.01 243.68-14.45L243.68-14.45Q243.49-14.65 242.61-14.65L242.61-14.65Q241.83-14.65 241.83-14.06L241.83-14.06 241.83-6.84Q241.83-4.25 242.27-2.54L242.27-2.54Q242.36-2.2 243.61-1.83 244.85-1.46 245.29-1.46L245.29-1.46Q245.49-1.46 245.49-0.54L245.49-0.54Q245.49-0.15 245.39 0.15L245.39 0.15Q239.53-0.15 239.19-0.15L239.19-0.15Q238.21-0.15 237.14-0.1 236.06-0.05 234.77 0.02 233.48 0.1 232.69 0.15L232.69 0.15Q232.5-0.05 232.5-0.54L232.5-0.54Q232.5-1.46 232.69-1.46L232.69-1.46Q233.28-1.46 234.53-1.81 235.77-2.15 235.92-2.54L235.92-2.54Q236.31-4.05 236.31-6.64L236.31-6.64 236.31-25.49Q236.31-28.42 235.92-29.59L235.92-29.59Q235.72-29.98 234.55-30.35 233.38-30.71 232.79-30.71L232.79-30.71Q232.6-30.71 232.6-31.45L232.6-31.45Q232.6-32.23 232.69-32.32L232.69-32.32Q232.94-32.32 235.4-32.18 237.87-32.03 239.19-32.03L239.19-32.03Q239.58-32.03 245.44-32.32L245.44-32.32Q245.59-31.88 245.59-31.54L245.59-31.54Q245.59-30.71 245.39-30.71L245.39-30.71Q244.95-30.71 243.63-30.32 242.31-29.93 242.22-29.59L242.22-29.59Q241.83-28.08 241.83-25.29ZM268.34-23.93L268.34-23.93Q268.34-27.59 271.41-30.1 274.49-32.62 278.35-32.62L278.35-32.62Q279.71-32.62 280.74-32.47 281.76-32.32 283.6-31.86 285.43-31.4 286.11-31.25L286.11-31.25Q286.7-27.93 286.7-23.73L286.7-23.73Q286.6-23.29 286.11-23.29L286.11-23.29Q284.79-23.29 284.69-23.73L284.69-23.73Q284.4-25.98 282.59-28.13 280.79-30.27 278.2-30.27L278.2-30.27Q275.95-30.27 274.76-29 273.56-27.73 273.56-25.59L273.56-25.59Q273.56-24.85 273.73-24.19 273.9-23.54 274.42-22.9 274.93-22.27 275.25-21.85 275.56-21.44 276.47-20.8 277.37-20.17 277.69-19.92 278-19.68 279.15-18.97 280.3-18.26 280.54-18.16L280.54-18.16Q280.84-17.92 282.18-17.11 283.52-16.31 284.06-15.94 284.6-15.58 285.62-14.7 286.65-13.82 287.11-13.04 287.58-12.26 287.97-11.06 288.36-9.86 288.36-8.5L288.36-8.5Q288.36-4.59 285.21-2.05 282.06 0.49 277.91 0.49L277.91 0.49Q274.98 0.49 268.92-0.88L268.92-0.88Q268.48-2.64 268.12-5.3 267.75-7.96 267.75-8.79L267.75-8.79Q267.8-9.18 268.53-9.18L268.53-9.18Q269.8-9.18 269.95-8.79L269.95-8.79Q270.14-7.91 270.63-6.86 271.12-5.81 271.97-4.61 272.83-3.42 274.27-2.66 275.71-1.9 277.52-1.9L277.52-1.9Q279.81-1.9 281.33-3.27 282.84-4.64 282.84-7.37L282.84-7.37Q282.84-8.2 282.52-8.98 282.2-9.77 281.79-10.3 281.37-10.84 280.57-11.47 279.76-12.11 279.23-12.45 278.69-12.79 277.64-13.4 276.59-14.01 276.15-14.26L276.15-14.26Q276-14.4 275.61-14.65L275.61-14.65Q274.2-15.53 273.46-16.02 272.73-16.5 271.58-17.46 270.44-18.41 269.85-19.24 269.26-20.07 268.8-21.29 268.34-22.51 268.34-23.93Z" opacity="1" transform="matrix(1,0,0,1,0,0)" fill="#bbbcff" class="wordmark-text-0" data-fill-palette-color="primary" id="text-0"></path></svg></g></svg></g></svg></g></svg></g><g transform="matrix(1,0,0,1,0,0.11401469387755014)"><svg viewBox="0 0 36.60722272677709 45.605877551020406" height="45.605877551020406" width="36.60722272677709"><g><svg xmlns="http://www.w3.org/2000/svg" xmlns:xlink="http://www.w3.org/1999/xlink" version="1.1" x="0" y="0" viewBox="45.60000000000001 20 208.6984928272493 260" enable-background="new 0 0 300 300" xml:space="preserve" height="45.605877551020406" width="36.60722272677709" class="icon-icon-0" data-fill-palette-color="accent" id="icon-0"><path d="M253.2 116.8c-0.4-0.4-0.8-0.8-1.2-1.1 0.2-1.3 0.4-2.6 0.4-4 0-9.3-5.7-17.5-14.1-20.9-1.1-7.3-5.6-13.5-12.2-16.8C223.9 63.7 214.8 56 203.9 56c-0.3 0-0.5 0-0.8 0-1.1-8-6.6-14.9-14.1-17.8C187.1 27.7 178 20 167 20c-7.3 0-14 3.5-18.2 9.2-7.6-0.1-14.6 3.6-18.8 9.7-1.5-0.3-3-0.5-4.6-0.5-7 0-13.5 3.2-17.7 8.6-1.2-0.2-2.3-0.3-3.5-0.3-11.5 0-21 8.6-22.4 19.7-9.1 1.6-16.3 8.7-18.2 17.7-10.3 2.1-18 11.2-18 22.1 0 3.7 0.9 7.3 2.6 10.5 0 0-0.1 0.1-0.1 0.1-0.9 1.2-1.3 2.7-1 4.1l31 155c0 0 0 0 0 0 0 0.1 0 0.1 0.1 0.2 0.1 0.2 0.1 0.5 0.2 0.7 0 0.1 0.1 0.2 0.1 0.3 0.1 0.2 0.2 0.4 0.3 0.5 0.1 0.1 0.1 0.2 0.2 0.3 0.1 0.2 0.2 0.3 0.4 0.4 0.1 0.1 0.2 0.2 0.3 0.3 0.1 0.1 0.3 0.2 0.4 0.3 0.1 0.1 0.2 0.1 0.3 0.2 0.2 0.1 0.3 0.2 0.5 0.3 0.1 0.1 0.2 0.1 0.3 0.2 0.2 0.1 0.4 0.1 0.6 0.2 0.1 0 0.2 0.1 0.3 0.1 0.3 0.1 0.6 0.1 0.9 0.1 0 0 0 0 0 0h2.6H116h33 33 33c0 0 0 0 0 0 0 0 0 0 0 0h2.2c2.4 0 4.4-1.7 4.9-4l32.1-155C254.5 119.5 254.1 118 253.2 116.8zM220 143.7l18.7-18.7h2l-1 4.9L220 149.5V143.7zM220 163.7l16-16-1.5 7.4L220 169.5V163.7zM220 183.7l10.8-10.8-1.5 7.4-9.3 9.3V183.7zM220 203.7l5.7-5.7-1.5 7.4-4.2 4.2V203.7zM220 223.7l0.5-0.5-0.5 2.6V223.7zM220 129.5V125h4.5L220 129.5zM68.3 93.7c2.8 0 5-2.2 5-5 0-6.9 5.6-12.5 12.5-12.5 0.2 0 0.4 0 0.6 0 1.5 0.1 2.9-0.4 4-1.5 1-1.1 1.5-2.5 1.4-4-0.1-0.5-0.1-1-0.1-1.4 0-6.9 5.6-12.5 12.5-12.5 1.4 0 2.8 0.2 4.1 0.7 2.3 0.8 4.9-0.2 6.1-2.4 2.2-4.1 6.4-6.6 11.1-6.6 1.7 0 3.4 0.3 4.9 1 1.2 0.5 2.6 0.6 3.8 0.1 1.2-0.5 2.2-1.5 2.8-2.7 2-4.6 6.5-7.6 11.5-7.6 0.6 0 1.3 0.1 2 0.2 2.1 0.4 4.3-0.7 5.3-2.6 2.2-4.2 6.4-6.8 11.1-6.8 6.8 0 12.3 5.3 12.5 12.2 0.1 2.3 1.7 4.3 4 4.7 5.7 1.2 9.9 6.4 9.9 12.3 0 0.6-0.1 1.3-0.2 2-0.3 1.7 0.3 3.5 1.7 4.7 1.3 1.1 3.2 1.5 4.9 0.9 1.4-0.5 2.8-0.7 4.1-0.7 6.6 0 12.1 5.2 12.5 11.8 0.1 2.1 1.5 3.8 3.4 4.5 5.1 1.7 8.6 6.5 8.6 11.8 0 0.1 0 0.3 0 0.4 0 2.4 1.7 4.4 4 4.9 5.7 1.2 9.9 6.4 9.9 12.3 0 1.1-0.2 2.2-0.4 3.2H215h-33-33-32.4c0 0 0 0 0 0H116 83 58.9c-0.2-0.5-0.4-0.9-0.7-1.3-1.6-2.2-2.5-4.7-2.5-7.5C55.7 99.3 61.3 93.7 68.3 93.7zM177 212.5l-23 23v-5.9l23-23V212.5zM177 192.5l-23 23v-5.9l23-23V192.5zM177 172.5l-23 23v-5.9l23-23V172.5zM177 152.5l-23 23v-5.9l23-23V152.5zM177 132.5l-23 23v-5.9l23-23V132.5zM154 135.5v-5.9l4.7-4.7h5.9L154 135.5zM154 249.7l23-23v5.9l-23 23V249.7zM177 270h-3.3l3.3-3.3V270zM93.7 270l17.3-17.3v5.8L99.5 270H93.7zM111 238.6l-23 23v-5.9l23-23V238.6zM111 218.5l-23 23v-5.9l23-23V218.5zM111 198.5l-23 23v-5.9l23-23V198.5zM111 178.5l-23 23v-5.9l23-23V178.5zM111 158.5l-23 23v-5.9l23-23V158.5zM111 138.5l-23 23v-5.9l23-23V138.5zM88 141.5v-5.9L98.7 125h5.9L88 141.5zM78 213.7l-1.9-9.2c0 0 0-0.1 0-0.1L59.6 125H78V213.7zM121 241c0-0.3 0-0.6 0-0.8V221v-20-76h23v43 20 82h-23V241zM154 269.7l23-23v5.9L159.5 270H154V269.7zM187 125h23v145h-23V125zM100.3 89.2c0-0.6 0-1.3 0-2 0.1-0.7 0.2-1.4 0.4-2.2 0.3-1.5 1-3 1.9-4.4 0.9-1.4 2.1-2.8 3.6-3.9 0.7-0.5 1.5-1.1 2.3-1.5 0.4-0.2 0.8-0.4 1.3-0.6l0.6-0.3 0.3-0.1 0.2-0.1 0.1 0 0 0 0 0 0.3-0.1 1-0.3c0.2 0 0.3-0.1 0.6-0.1l0.8-0.1c1.1-0.2 2-0.2 2.9-0.2 1.8 0.1 3.6 0.4 5.2 1.1 1.6 0.6 3 1.5 4.2 2.5 0.6 0.5 1.1 1 1.6 1.5 0.5 0.5 0.9 1.1 1.2 1.6 0.3 0.6 0.6 1.1 0.9 1.6 0.2 0.5 0.4 1 0.6 1.5 0.1 0.5 0.2 0.9 0.3 1.4 0.1 0.4 0.1 0.8 0.1 1.2 0.1 0.7-0.1 1.3-0.1 1.6 0 0.4-0.1 0.6-0.1 0.6s-0.2-0.1-0.4-0.4c-0.3-0.2-0.7-0.6-1.2-1-0.2-0.2-0.5-0.4-0.8-0.6-0.3-0.2-0.6-0.4-1-0.6-0.7-0.4-1.4-0.8-2.2-1.2-0.8-0.3-1.7-0.6-2.6-0.8-0.9-0.2-1.8-0.3-2.7-0.4-0.9-0.1-1.8 0-2.7 0.1-0.2 0-0.4 0.1-0.7 0.1-0.2 0-0.3 0.1-0.5 0.1l-0.2 0c0 0-0.1 0-0.2 0l-0.2 0.1-0.8 0.2 0 0 0 0-0.1 0-0.2 0.1-0.3 0.1c-0.2 0.1-0.4 0.2-0.6 0.3-0.4 0.2-0.8 0.4-1.2 0.6-0.8 0.5-1.5 0.9-2.2 1.5-0.7 0.6-1.4 1.2-1.9 1.9-0.6 0.7-1.1 1.4-1.6 2.2-0.4 0.8-0.8 1.5-1.1 2.3-0.1 0.4-0.3 0.7-0.4 1.1-0.1 0.3-0.2 0.6-0.3 0.9-0.2 0.6-0.3 1.2-0.4 1.5-0.1 0.4-0.1 0.6-0.1 0.6s-0.2-0.1-0.4-0.4c-0.1-0.1-0.3-0.3-0.5-0.5-0.2-0.2-0.4-0.4-0.6-0.7-0.2-0.3-0.4-0.6-0.6-1-0.2-0.4-0.4-0.8-0.6-1.3-0.2-0.5-0.3-1-0.4-1.6C100.4 90.5 100.4 89.9 100.3 89.2zM143.8 60.3c0-0.3-0.1-0.6 0-0.9 0-0.4 0.1-0.8 0.1-1.2 0.1-0.4 0.2-0.9 0.3-1.4 0.1-0.5 0.3-1 0.6-1.5 0.2-0.5 0.5-1 0.9-1.6 0.3-0.5 0.8-1.1 1.2-1.6 0.5-0.5 1-1.1 1.6-1.5 1.2-1 2.6-1.8 4.2-2.5 1.6-0.6 3.4-1 5.2-1.1 1.8-0.1 3.7 0.2 5.5 0.8l0.4 0.1 0.1 0 0.2 0.1 0.5 0.2c0.2 0.1 0.3 0.1 0.5 0.2l0.7 0.4c1 0.5 1.7 1 2.5 1.5 1.4 1.1 2.7 2.5 3.6 3.9 0.9 1.5 1.6 3 1.9 4.4 0.2 0.7 0.3 1.5 0.4 2.2 0 0.7 0.1 1.4 0 2-0.1 0.6-0.1 1.2-0.3 1.8-0.2 0.6-0.3 1.1-0.5 1.6-0.2 0.5-0.4 0.9-0.6 1.3-0.2 0.4-0.4 0.7-0.6 1-0.4 0.6-0.8 1-1 1.3-0.3 0.3-0.4 0.4-0.4 0.4s-0.1-0.2-0.1-0.6c-0.1-0.4-0.2-0.9-0.4-1.5-0.1-0.3-0.2-0.6-0.3-1-0.1-0.3-0.3-0.7-0.4-1.1-0.3-0.7-0.7-1.5-1.1-2.2-0.5-0.7-1-1.5-1.6-2.2-0.6-0.7-1.3-1.3-1.9-1.9-0.7-0.6-1.5-1.1-2.2-1.5-0.2-0.1-0.4-0.2-0.6-0.3-0.2-0.1-0.3-0.1-0.5-0.2l-0.2-0.1c0 0-0.1 0-0.2-0.1l-0.2-0.1-0.5-0.2-0.2-0.1-0.1 0c-0.8-0.2-1.7-0.5-2.5-0.6-0.9-0.1-1.8-0.2-2.7-0.1-0.9 0.1-1.8 0.2-2.7 0.4-0.9 0.2-1.7 0.5-2.6 0.8-0.8 0.4-1.6 0.7-2.2 1.2-0.3 0.2-0.6 0.4-1 0.6-0.3 0.2-0.6 0.4-0.8 0.6-0.5 0.3-0.9 0.8-1.2 1-0.3 0.2-0.4 0.4-0.4 0.4s0-0.2-0.1-0.6C143.9 60.8 143.8 60.6 143.8 60.3zM173.7 86.9c0.2-0.5 0.5-1 0.9-1.6 0.3-0.5 0.8-1.1 1.2-1.6 0.5-0.5 1-1.1 1.6-1.5 1.2-1 2.6-1.8 4.2-2.5 1.6-0.6 3.4-1 5.2-1.1 1.8-0.1 3.7 0.2 5.5 0.8l0.4 0.1 0.1 0 0.2 0.1 0.5 0.2c0.2 0.1 0.3 0.1 0.5 0.2l0.7 0.4c1 0.5 1.7 1 2.5 1.5 1.4 1.1 2.7 2.5 3.6 3.9 0.9 1.5 1.6 3 1.9 4.4 0.2 0.7 0.3 1.5 0.4 2.2 0 0.7 0.1 1.4 0 2-0.1 0.6-0.1 1.2-0.3 1.8-0.2 0.6-0.3 1.1-0.5 1.6-0.2 0.5-0.4 0.9-0.6 1.3-0.2 0.4-0.4 0.7-0.6 1-0.4 0.6-0.8 1-1 1.3-0.3 0.3-0.4 0.4-0.4 0.4s-0.1-0.2-0.1-0.6c-0.1-0.4-0.2-0.9-0.4-1.5-0.1-0.3-0.2-0.6-0.3-1-0.1-0.3-0.3-0.7-0.4-1.1-0.3-0.7-0.7-1.5-1.1-2.2-0.5-0.7-1-1.5-1.6-2.2-0.6-0.7-1.3-1.3-1.9-1.9-0.7-0.6-1.5-1.1-2.2-1.5-0.2-0.1-0.4-0.2-0.6-0.3-0.2-0.1-0.3-0.1-0.5-0.2l-0.2-0.1c0 0-0.1 0-0.2-0.1l-0.2-0.1-0.5-0.2-0.2-0.1-0.1 0c-0.8-0.2-1.7-0.5-2.5-0.6-0.9-0.1-1.8-0.2-2.7-0.1-0.9 0.1-1.8 0.2-2.7 0.4-0.9 0.2-1.7 0.5-2.6 0.8-0.8 0.4-1.6 0.7-2.2 1.2-0.3 0.2-0.6 0.4-1 0.6-0.3 0.2-0.6 0.4-0.8 0.6-0.5 0.3-0.9 0.8-1.2 1-0.3 0.2-0.4 0.4-0.4 0.4s0-0.2-0.1-0.6c0-0.2 0-0.4-0.1-0.7 0-0.3-0.1-0.6 0-0.9 0-0.4 0.1-0.8 0.1-1.2 0.1-0.4 0.2-0.9 0.3-1.4C173.3 87.9 173.5 87.4 173.7 86.9z" fill="#bbbcff" data-fill-palette-color="accent"></path></svg></g></svg></g></svg></g><defs></defs></svg><rect width="395.52" height="39.600916334234384" fill="none" stroke="none" visibility="hidden"></rect></g></svg></g></svg>